<?xml version="1.0" encoding="iso-8859-1"?>
<!-- Generator: Adobe Illustrator 19.0.0, SVG Export Plug-In . SVG Version: 6.00 Build 0)  -->
<svg version="1.1" id="Capa_1" xmlns="http://www.w3.org/2000/svg" xmlns:xlink="http://www.w3.org/1999/xlink" x="0px" y="0px"
	 viewBox="0 0 512.002 512.002" style="enable-background:new 0 0 512.002 512.002;" xml:space="preserve">
<rect x="136.601" y="83.47" style="fill:#FFE584;" width="329.65" height="357.29"/>
<path style="fill:#A3D6EB;" d="M475.048,504.5H127.812c-9.786,0-17.72-7.933-17.72-17.72v-28.736c0-9.786,7.933-17.72,17.72-17.72
	h347.237c9.786,0,17.72,7.933,17.72,17.72v28.736C492.768,496.567,484.835,504.5,475.048,504.5z"/>
<path style="opacity:0.1;enable-background:new    ;" d="M475.048,440.325h-36.08c9.786,0,17.72,7.933,17.72,17.72v28.736
	c0,9.786-7.933,17.72-17.72,17.72h36.08c9.786,0,17.72-7.933,17.72-17.72v-28.736C492.768,448.258,484.835,440.325,475.048,440.325z
	"/>
<path style="fill:#A3D6EB;" d="M136.603,386.357h-36.25c-44.729,0-81.119-36.39-81.119-81.119v-51.523
	c0-44.729,36.39-81.119,81.119-81.119h36.25v38.657h-36.25c-23.414,0-42.462,19.049-42.462,42.462v51.523
	c0,23.414,19.048,42.462,42.462,42.462h36.25V386.357z"/>
<path style="opacity:0.05;enable-background:new    ;" d="M136.603,83.467v57.047c6.464,3.986,14.074,6.29,22.226,6.29
	c5.499,0,10.75-1.053,15.57-2.961c2.205-0.873,4.733-0.329,6.333,1.421c11.081,12.123,27.013,19.734,44.731,19.734
	c7.384,0,14.454-1.329,20.997-3.748c1.971-0.729,4.171-0.358,5.771,1.004c13.255,11.284,30.426,18.103,49.198,18.103
	s35.943-6.82,49.198-18.103c1.6-1.362,3.801-1.733,5.771-1.004c6.542,2.42,13.613,3.748,20.997,3.748
	c15.437,0,29.505-5.79,40.201-15.297c1.424-1.266,3.67-0.265,3.67,1.641V440.76h44.99V83.467H136.603z"/>
<path style="fill:#F7E6C5;" d="M444.032,41.054c-6.938,0-13.48,1.677-19.262,4.63c-11.105-13.906-28.193-22.825-47.373-22.825
	c-8.604,0-16.783,1.804-24.196,5.036C339.633,15.249,321.441,7.5,301.43,7.5c-20.011,0-38.203,7.749-51.771,20.395
	c-7.413-3.232-15.592-5.036-24.196-5.036c-19.18,0-36.267,8.919-47.373,22.825c-5.782-2.953-12.324-4.63-19.262-4.63
	c-23.424,0-42.413,18.989-42.413,42.413s18.989,42.413,42.413,42.413c6.938,0,13.48-1.677,19.262-4.63
	c11.106,13.906,28.193,22.825,47.373,22.825c8.604,0,16.783-1.804,24.196-5.036c13.568,12.646,31.76,20.395,51.771,20.395
	s38.202-7.749,51.771-20.395c7.413,3.232,15.592,5.036,24.196,5.036c19.18,0,36.267-8.919,47.373-22.825
	c5.782,2.953,12.324,4.63,19.262,4.63c23.424,0,42.413-18.989,42.413-42.413S467.456,41.054,444.032,41.054z"/>
<path style="opacity:0.4;fill:#FFFFFF;enable-background:new    ;" d="M446.981,41.154c-7.077-0.482-13.807,0.786-19.818,3.399
	c-1.423,0.619-3.078,0.259-4.098-0.911c-11.109-12.731-27.444-20.784-45.669-20.784c-7.845,0-15.337,1.5-22.218,4.215
	c-1.243,0.49-2.645,0.192-3.648-0.69C338.157,14.635,320.631,7.5,301.43,7.5c-19.201,0-36.727,7.135-50.101,18.884
	c-1.004,0.882-2.405,1.18-3.648,0.69c-6.88-2.715-14.373-4.215-22.218-4.215c-18.224,0-34.559,8.052-45.668,20.784
	c-1.02,1.169-2.674,1.529-4.098,0.911c-6.011-2.613-12.741-3.881-19.818-3.399c-21.497,1.464-38.667,19.227-39.436,40.76
	c-0.861,24.132,18.446,43.966,42.385,43.966c5.994,0,11.693-1.251,16.86-3.496c1.427-0.62,3.084-0.264,4.107,0.908
	c11.109,12.731,27.444,20.783,45.668,20.783c7.845,0,15.337-1.5,22.218-4.215c1.243-0.49,2.645-0.192,3.648,0.69
	c13.374,11.749,30.9,18.884,50.101,18.884c19.201,0,36.727-7.135,50.101-18.884c1.004-0.882,2.406-1.18,3.648-0.69
	c6.88,2.715,14.372,4.215,22.218,4.215c18.224,0,34.558-8.052,45.668-20.783c1.022-1.172,2.68-1.528,4.106-0.908
	c5.168,2.245,10.867,3.496,16.861,3.496c23.939,0,43.246-19.834,42.385-43.966C485.648,60.381,468.479,42.618,446.981,41.154z"/>
<g style="opacity:0.1;">
	<path d="M202.967,262.113L202.967,262.113c-14.527,0-26.304,11.777-26.304,26.304v96.585c0,14.527,11.777,26.304,26.304,26.304l0,0
		c14.527,0,26.304-11.777,26.304-26.304v-96.585C229.27,273.89,217.494,262.113,202.967,262.113z"/>
	<path d="M301.43,262.113L301.43,262.113c-14.527,0-26.304,11.777-26.304,26.304v96.585c0,14.527,11.776,26.304,26.304,26.304l0,0
		c14.527,0,26.304-11.777,26.304-26.304v-96.585C327.734,273.89,315.957,262.113,301.43,262.113z"/>
	<path d="M399.894,262.113L399.894,262.113c-14.527,0-26.304,11.777-26.304,26.304v96.585c0,14.527,11.776,26.304,26.304,26.304l0,0
		c14.527,0,26.304-11.777,26.304-26.304v-96.585C426.197,273.89,414.421,262.113,399.894,262.113z"/>
</g>
<path style="opacity:0.1;enable-background:new    ;" d="M102.63,386.357h33.973V347.7H102.63
	C102.63,347.7,102.63,386.357,102.63,386.357z M102.63,172.595v38.657h33.973v-38.657H102.63z"/>
<g style="opacity:0.4;">
	<ellipse style="fill:#F9B0B6;" cx="361.881" cy="229.83" rx="26.947" ry="16.15"/>
	<ellipse style="fill:#F9B0B6;" cx="240.981" cy="229.83" rx="26.947" ry="16.15"/>
</g>
<path style="fill:#4A5058;" d="M320.284,207.633c0,10.641-8.815,19.223-19.542,18.842c-10.217-0.363-18.167-9.071-18.167-19.294
	V193.92c0-2.839,2.302-5.141,5.141-5.141h27.427c2.839,0,5.141,2.302,5.141,5.141V207.633z"/>
<g style="opacity:0.5;">
	<circle style="fill:#FFFFFF;" cx="436.231" cy="216.93" r="7.357"/>
	<circle style="fill:#FFFFFF;" cx="166.661" cy="245.98" r="7.357"/>
	<circle style="fill:#FFFFFF;" cx="176.661" cy="161.93" r="7.357"/>
</g>
<g style="opacity:0.1;">
	<circle cx="388.821" cy="74.19" r="7.357"/>
	<circle cx="209.511" cy="97.94" r="7.357"/>
	<circle cx="308.791" cy="116.9" r="7.357"/>
	<circle cx="244.211" cy="56.29" r="7.357"/>
</g>
<path d="M300.476,233.97c0.324,0.012,0.647,0.018,0.969,0.018c6.864,0,13.325-2.604,18.284-7.39
	c5.194-5.013,8.055-11.748,8.055-18.965V193.92c0-6.97-5.671-12.641-12.641-12.641h-27.426c-6.97,0-12.641,5.671-12.641,12.641
	v13.261C275.076,221.697,286.233,233.464,300.476,233.97z M290.076,196.279h22.708v11.354c0,3.109-1.233,6.011-3.471,8.171
	c-2.237,2.158-5.175,3.289-8.304,3.175c-6.029-0.214-10.934-5.507-10.934-11.799L290.076,196.279L290.076,196.279z M235.252,180.417
	c-4.142,0-7.5,3.358-7.5,7.5v11.17c0,4.142,3.358,7.5,7.5,7.5s7.5-3.358,7.5-7.5v-11.17
	C242.752,183.774,239.395,180.417,235.252,180.417z M202.967,254.613c-18.64,0-33.804,15.164-33.804,33.804v55.479
	c0,4.142,3.358,7.5,7.5,7.5s7.5-3.358,7.5-7.5v-55.479c0-10.368,8.436-18.804,18.804-18.804s18.804,8.435,18.804,18.804v96.585
	c0,10.368-8.435,18.803-18.804,18.803c-10.368,0-18.804-8.435-18.804-18.803v-11.344c0-4.142-3.358-7.5-7.5-7.5s-7.5,3.358-7.5,7.5
	v11.344c0,18.639,15.164,33.803,33.804,33.803s33.804-15.164,33.804-33.803v-96.585
	C236.771,269.777,221.606,254.613,202.967,254.613z M373.733,199.086v-11.17c0-4.142-3.358-7.5-7.5-7.5s-7.5,3.358-7.5,7.5v11.17
	c0,4.142,3.358,7.5,7.5,7.5S373.733,203.229,373.733,199.086z M475.048,432.825h-1.291V123.567c2.185-1.629,4.262-3.44,6.196-5.445
	c9.49-9.835,14.448-22.789,13.959-36.475c-0.899-25.191-21.29-46.265-46.421-47.976c-7.137-0.486-14.08,0.504-20.682,2.944
	c-1.046-1.104-2.13-2.174-3.242-3.2c-3.043-2.809-7.789-2.621-10.598,0.422c-2.81,3.043-2.621,7.788,0.422,10.598
	c1.409,1.301,2.762,2.693,4.022,4.136c3.176,3.642,8.296,4.789,12.739,2.859c5.155-2.24,10.647-3.183,16.319-2.794
	c17.568,1.196,31.821,15.93,32.45,33.545c0.342,9.581-3.126,18.646-9.763,25.524c-2.003,2.076-4.217,3.865-6.59,5.359
	c-0.184,0.104-0.364,0.213-0.537,0.331c-5.371,3.246-11.538,4.983-17.999,4.983c-4.813,0-9.48-0.967-13.873-2.876
	c-4.447-1.932-9.57-0.784-12.746,2.856c-10.101,11.576-24.686,18.214-40.017,18.214c-6.708,0-13.257-1.242-19.465-3.691
	c-3.847-1.52-8.196-0.739-11.351,2.032c-12.492,10.974-28.526,17.018-45.15,17.018s-32.659-6.044-45.15-17.018
	c-3.155-2.772-7.504-3.551-11.352-2.033c-6.208,2.449-12.756,3.691-19.465,3.691c-15.33,0-29.916-6.639-40.017-18.214
	c-3.176-3.64-8.298-4.788-12.746-2.856c-4.392,1.908-9.06,2.876-13.872,2.876c-6.462,0-12.628-1.737-17.999-4.983
	c-0.173-0.119-0.354-0.227-0.537-0.331c-2.373-1.494-4.587-3.283-6.59-5.359c-6.638-6.879-10.105-15.944-9.763-25.524
	c0.629-17.615,14.882-32.349,32.45-33.545c5.672-0.39,11.164,0.553,16.319,2.795c4.442,1.929,9.562,0.782,12.738-2.858
	c10.101-11.576,24.687-18.215,40.018-18.215c6.71,0,13.258,1.242,19.465,3.691c3.847,1.517,8.197,0.739,11.35-2.032
	C268.772,21.044,284.806,15,301.43,15s32.659,6.044,45.151,17.019c3.155,2.771,7.503,3.549,11.352,2.032
	c6.206-2.45,12.755-3.691,19.464-3.691c4.633,0,9.229,0.597,13.659,1.773c3.999,1.064,8.11-1.319,9.174-5.323
	c1.064-4.003-1.32-8.111-5.323-9.174c-5.686-1.511-11.577-2.276-17.51-2.276c-7.783,0-15.402,1.305-22.682,3.882
	C339.754,6.815,320.925,0,301.43,0c-19.494,0-38.323,6.816-53.285,19.241c-7.281-2.577-14.899-3.882-22.682-3.882
	c-18.72,0-36.569,7.712-49.413,21.257c-6.602-2.44-13.547-3.429-20.681-2.944c-25.132,1.711-45.522,22.784-46.421,47.976
	c-0.489,13.686,4.469,26.64,13.959,36.475c1.934,2.005,4.01,3.815,6.196,5.445v41.528h-28.75c-48.865,0-88.619,39.754-88.619,88.62
	v51.523c0,48.865,39.754,88.619,88.619,88.619h28.75v38.968h-1.292c-13.906,0-25.22,11.314-25.22,25.22v28.736
	c0,13.906,11.313,25.22,25.22,25.22h347.237c13.906,0,25.22-11.314,25.22-25.22v-28.736
	C500.268,444.138,488.955,432.825,475.048,432.825z M144.103,131.187c4.703,1.442,9.651,2.193,14.726,2.193
	c5.931,0,11.712-1.029,17.221-3.063c12.844,13.544,30.694,21.258,49.414,21.258c7.782,0,15.4-1.305,22.682-3.882
	c14.961,12.425,33.791,19.241,53.285,19.241c19.495,0,38.324-6.816,53.285-19.241c7.282,2.577,14.9,3.882,22.682,3.882
	c18.719,0,36.569-7.713,49.413-21.258c5.51,2.034,11.291,3.063,17.222,3.063c5.075,0,10.023-0.75,14.725-2.193v301.637H144.103
	V131.187z M100.353,378.857c-40.594,0-73.619-33.025-73.619-73.619v-51.523c0-40.594,33.025-73.62,73.619-73.62h28.75v23.657h-28.75
	c-27.549,0-49.962,22.413-49.962,49.962v51.523c0,27.549,22.413,49.962,49.962,49.962h28.75v23.657h-28.75V378.857z
	 M129.103,218.752V340.2h-28.75c-19.278,0-34.963-15.684-34.963-34.962v-51.523c0-19.278,15.684-34.962,34.963-34.962h28.75V218.752
	z M485.268,486.78c0,5.635-4.585,10.22-10.22,10.22H127.812c-5.635,0-10.22-4.585-10.22-10.22v-28.736
	c0-5.635,4.584-10.22,10.22-10.22h6.294c0.782,0.277,1.62,0.435,2.498,0.435c0.877,0,1.715-0.158,2.498-0.435h324.659
	c0.782,0.277,1.621,0.435,2.497,0.435c0.877,0,1.715-0.158,2.498-0.435h6.293c5.635,0,10.22,4.585,10.22,10.22v28.736H485.268z
	 M399.894,254.613c-18.64,0-33.804,15.164-33.804,33.804v96.585c0,18.639,15.164,33.803,33.804,33.803s33.804-15.164,33.804-33.803
	v-57.91c0-4.142-3.358-7.5-7.5-7.5s-7.5,3.358-7.5,7.5v57.91c0,10.368-8.436,18.803-18.804,18.803s-18.804-8.435-18.804-18.803
	v-96.585c0-10.368,8.435-18.804,18.804-18.804c10.368,0,18.804,8.435,18.804,18.804v10.975c0,4.142,3.358,7.5,7.5,7.5
	s7.5-3.358,7.5-7.5v-10.975C433.697,269.777,418.533,254.613,399.894,254.613z M301.43,254.613
	c-18.64,0-33.804,15.164-33.804,33.804v96.585c0,18.639,15.164,33.803,33.804,33.803s33.804-15.164,33.804-33.803v-96.585
	C335.234,269.777,320.07,254.613,301.43,254.613z M320.234,385.002c0,10.368-8.436,18.803-18.804,18.803
	s-18.804-8.435-18.804-18.803v-96.585c0-10.368,8.436-18.804,18.804-18.804s18.804,8.435,18.804,18.804L320.234,385.002
	L320.234,385.002z"/>
<g>
</g>
<g>
</g>
<g>
</g>
<g>
</g>
<g>
</g>
<g>
</g>
<g>
</g>
<g>
</g>
<g>
</g>
<g>
</g>
<g>
</g>
<g>
</g>
<g>
</g>
<g>
</g>
<g>
</g>
</svg>
